<!--?xml version="1.0" standalone="no"?-->
              <svg id="sw-js-blob-svg" viewBox="0 0 100 100" xmlns="http://www.w3.org/2000/svg" version="1.1">
                    <defs> 
                        <linearGradient id="sw-gradient" x1="0" x2="1" y1="1" y2="0">
                            <stop id="stop1" stop-color="rgba(192, 195, 205, 0.23)" offset="0%"></stop>
                            <stop id="stop2" stop-color="rgba(255, 255, 255, 1)" offset="100%"></stop>
                        </linearGradient>
                    </defs>
                <path fill="url(#sw-gradient)" d="M20.4,-29.9C27.4,-27.3,34.6,-23.2,37.8,-17C40.9,-10.9,39.9,-2.6,37.6,4.6C35.4,11.9,31.8,18.2,26.9,22.6C22,27.1,15.7,29.7,8.7,33.4C1.7,37.2,-6.1,42.2,-12,40.6C-17.8,38.9,-21.8,30.7,-26.8,23.8C-31.7,17,-37.6,11.6,-40.1,4.8C-42.5,-2,-41.5,-10.2,-38.7,-18.2C-35.9,-26.1,-31.3,-33.8,-24.5,-36.5C-17.8,-39.2,-8.9,-37,-1.1,-35.3C6.7,-33.7,13.4,-32.5,20.4,-29.9Z" width="100%" height="100%" transform="translate(50 50)" stroke-width="0" style="transition: all 0.3s ease 0s;" stroke="url(#sw-gradient)"></path>
              </svg>