<!--?xml version="1.0" standalone="no"?-->
              <svg id="sw-js-blob-svg" viewBox="0 0 100 100" xmlns="http://www.w3.org/2000/svg" version="1.1">
                    <defs> 
                        <linearGradient id="sw-gradient" x1="0" x2="1" y1="1" y2="0">
                            <stop id="stop1" stop-color="rgba(96, 179, 209, 1)" offset="0%"></stop>
                            <stop id="stop2" stop-color="rgba(255, 255, 255, 1)" offset="100%"></stop>
                        </linearGradient>
                    </defs>
                <path fill="url(#sw-gradient)" d="M17.4,-29.9C22.6,-27.2,26.7,-22.5,28.6,-17.2C30.5,-11.9,30.1,-5.9,30.3,0.1C30.6,6.2,31.4,12.4,29.6,17.9C27.9,23.4,23.5,28.2,18.1,32.4C12.7,36.7,6.4,40.3,0.1,40.2C-6.2,40.1,-12.5,36.3,-19.7,33.1C-26.9,30,-35.1,27.5,-39.9,22.1C-44.7,16.6,-46.2,8.3,-44.1,1.2C-42,-5.9,-36.3,-11.8,-31.9,-17.9C-27.5,-24,-24.3,-30.3,-19.2,-33C-14.1,-35.6,-7,-34.6,-0.4,-33.8C6.1,-33,12.3,-32.5,17.4,-29.9Z" width="100%" height="100%" transform="translate(50 50)" stroke-width="0" style="transition: all 0.3s ease 0s;" stroke="url(#sw-gradient)"></path>
              </svg>